<svg version="1.1" xmlns="http://www.w3.org/2000/svg" style="display:none;">
  <symbol id="menu" viewBox="0 0 1024 1024">
    <path d="M85.333333 810.666667v-85.333334h853.333334v85.333334H85.333333z m0-256v-85.333334h853.333334v85.333334H85.333333z m0-256V213.333333h853.333334v85.333334H85.333333z"></path>
  </symbol>
  <symbol id="user" viewBox="0 0 1024 1024">
    <path d="M512 512c52.8 0 96-43.2 96-96s-43.2-96-96-96c-52.768 0-96 43.2-96 96s43.232 96 96 96z m0-256a160.032 160.032 0 0 1 0 320c-88.32 0-160-71.68-160-160s71.68-160 160-160z m285.792 558.08A414.432 414.432 0 0 0 928 512c0-229.44-186.56-416-416-416S96 282.56 96 512c0 118.72 49.952 226.24 130.272 302.08 4.8-39.04 19.84-72 44.8-98.56C318.432 664.64 397.12 640 512 640c114.912 0 193.632 24.64 240.992 75.52 24.96 26.56 40 59.52 44.8 98.56z m-62.4 48.64v-0.96c3.168-44.48-6.4-78.08-29.12-102.72C672 722.56 606.72 704 512 704c-94.72 0-160 18.56-194.208 55.04-22.72 24.64-32.352 58.24-29.12 102.72v0.96A414.016 414.016 0 0 0 512 928c81.952 0 158.72-24 223.392-65.28zM512 32c264.672 0 480 215.36 480 480s-215.328 480-480 480C247.392 992 32 776.64 32 512S247.392 32 512 32z"></path>
  </symbol>
  <symbol id="quit" viewBox="0 0 1024 1024">
    <path d="M562.972444 554.666667c0 28.103111-22.869333 50.972444-51.029333 50.972444-28.216889 0-50.972444-22.755556-50.972444-50.972444L460.970667 112.526222c0-28.103111 22.869333-50.972444 50.972444-50.972444s51.029333 22.869333 51.029333 50.972444L562.972444 554.666667 562.972444 554.666667zM84.593778 535.438222c0-152.576 80.554667-286.663111 201.102222-361.813333 23.608889-15.018667 55.125333-7.850667 69.973333 16.042667C370.631111 213.617778 363.463111 244.963556 339.626667 259.868444 247.694222 317.610667 186.652444 419.043556 186.652444 535.324444c0.398222 179.598222 145.635556 324.892444 325.290667 325.233778 179.598222-0.455111 324.778667-145.692444 325.12-325.233778 0-119.011556-64.227556-222.663111-159.800889-279.552-24.291556-14.392889-32.256-45.738667-17.92-69.973333 14.449778-24.177778 45.795556-32.142222 70.030222-17.806222 125.326222 74.012444 209.976889 210.830222 209.976889 367.274667 0 235.918222-191.260444 427.235556-427.292444 427.235556C275.911111 962.787556 84.593778 771.584 84.593778 535.438222"></path>
  </symbol>
  <symbol id="home" viewBox="0 0 1024 1024">
    <path d="M960.211687 366.359427l-82.416759-57.578831L877.794928 88.061742c0-3.38699-2.257993-5.644983-5.644983-5.644983l-109.512679 0c-3.38699 0-5.644983 2.257993-5.644983 5.644983l0 136.6086L526.676957 63.223815c-2.822492-1.693495-6.209482-2.822492-9.031974-2.257993-2.822492 0-6.209482 0.564498-9.031974 2.257993L72.820287 364.101433c-5.644983 3.951488-7.338479 11.289967-3.951488 16.370452l25.966924 37.821389c3.38699 5.080485 11.289967 6.209482 16.93495 2.257993l405.309813-279.99118 403.616318 282.249173c5.644983 3.951488 13.54796 3.38699 16.93495-1.693495l26.531422-37.821389C968.114664 378.213892 965.85667 370.875413 960.211687 366.359427zM151.285557 445.953693l0 256.846748L151.285557 937.067255l0 3.951488c0 6.209482 5.080485 11.289967 11.289967 11.289967L163.70452 952.30871c1.693495 0.564498 2.822492 0.564498 4.515987 0.564498l235.39581-0.564498 16.370452 0c6.209482 0 11.289967-5.080485 11.289967-11.289967l0-10.16097 0 0 0-283.37817 170.478501 0 0 164.269019 0 130.399118c0 6.209482 5.080485 11.289967 11.289967 11.289967l11.289967 0 241.040794 0 5.080485 0c6.209482 0 11.289967-5.080485 11.289967-11.289967l0-1.128997c0-1.128997 0.564498-2.257993 0.564498-3.38699L882.310915 445.953693 521.596472 194.187431 151.285557 445.953693z"></path>
  </symbol>
  <symbol id="list" viewBox="0 0 1024 1024">
    <path d="M62.360791 138.133034l150.266375 0 0 150.192697-150.266375 0 0-150.192697Z" p-id="5918"></path><path d="M362.820887 138.133034l596.895529 0 0 150.192697-596.895529 0 0-150.192697Z" p-id="5919"></path><path d="M62.360791 438.08864l150.266375 0 0 150.193721-150.266375 0 0-150.193721Z" p-id="5920"></path><path d="M362.820887 438.08864l596.895529 0 0 150.193721-596.895529 0 0-150.193721Z" p-id="5921"></path><path d="M62.360791 735.7459l150.266375 0 0 150.192697-150.266375 0 0-150.192697Z" p-id="5922"></path><path d="M362.820887 735.7459l596.895529 0 0 150.192697-596.895529 0 0-150.192697Z"></path>
  </symbol>
  <symbol id="box" viewBox="0 0 1024 1024">
    <path d="M42.666667 213.333333l469.333333-213.333333 469.333333 213.333333 0 597.333333-469.333333 213.333333-469.333333-213.333333 0-597.333333zM469.333333 454.016l-341.333333-155.008 0 456.661333 341.333333 155.349333 0-457.002667zM896 755.669333l0-456.661333-341.333333 155.008 0 457.002667zM826.666667 236.672l-314.666667-143.018667-314.666667 143.018667 314.666667 143.018667z"></path>
  </symbol>
  <symbol id="round" viewBox="0 0 1024 1024">
    <path d="M511.998497 511.994389m-121.263158-210.03395a242.526316 242.526316 0 1 0 242.526315 420.067901 242.526316 242.526316 0 1 0-242.526315-420.067901Z" p-id="35353"></path><path d="M511.998497 511.994389m-94.31579-163.359739a188.631579 188.631579 0 1 0 188.631579 326.719479 188.631579 188.631579 0 1 0-188.631579-326.719479Z"></path>
  </symbol>
  <symbol id="arrow-left" viewBox="0 0 1024 1024" >
    <path d="M248.985754 562.401363l433.21012 440.055578a72.279984 72.279984 0 0 0 102.144973 0.805348 57.179709 57.179709 0 0 0 0.604011-80.534802l-454.350505-461.531524a57.179709 57.179709 0 0 0-80.803251-0.939573A72.279984 72.279984 0 0 0 248.985754 562.401363z"></path>
    <path d="M340.526979 552.401625l440.055577-433.143007A72.279984 72.279984 0 0 0 781.387904 17.046533a57.179709 57.179709 0 0 0-80.534801-0.604011L238.986017 470.725914a57.112597 57.112597 0 0 0-0.604011 80.870363 72.279984 72.279984 0 0 0 102.144973 0.805348z"></path>
  </symbol>
  <symbol id="refresh" viewBox="0 0 1024 1024">
    <path d="M512 128v85.333333c164.693333 0 298.666667 133.973333 298.666667 298.666667s-133.973333 298.666667-298.666667 298.666667-298.666667-133.973333-298.666667-298.666667c0-79.765333 31.04-154.773333 87.466667-211.178667l-60.352-60.352A382.826667 382.826667 0 0 0 128.042667 512c0 212.074667 171.925333 384 384 384 212.053333 0 384-171.925333 384-384S724.053333 128 512 128" p-id="6850"></path><path d="M375.786667 380.608l-83.989334 15.146667-22.677333-125.973334L143.146667 292.48 128 208.490667 337.962667 170.666667z"></path>
  </symbol>
  <symbol id="filter" viewBox="0 0 1024 1024">
    <path d="M597.265 955.733c-0.273-0.478-0.41-1.058-0.785-1.4-7.578-6.621-10.718-15.052-10.684-25.019 0.103-18.466 0.034-36.966 0.034-55.432 0-126.6 0.069-253.201-0.102-379.802-0.034-12.015 3.925-21.367 12.356-29.764 83.388-83.183 166.673-166.537 249.959-249.822 6.997-7.032 12.697-14.814 15.496-24.61 8.431-29.082-13.175-59.324-43.486-60.655-1.604-0.068-3.242-0.068-4.847-0.068H208.76c-22.63 0-40.618 12.049-47.479 32.29-5.393 15.94-2.867 30.959 7.305 44.441 3.379 4.438 7.133 8.568 11.059 12.493 79.394 79.497 158.822 158.993 238.387 238.353 8.328 8.295 12.151 17.613 12.117 29.389-0.205 86.255-0.17 172.544-0.068 258.765 0 13.175-4.745 23.45-16.555 29.73-18.841 10.035-42.36-2.936-44.1-24.132-0.17-2.321-0.17-4.71-0.17-7.032 0-81.442-0.035-162.85 0.068-244.258 0-3.55-1.024-5.973-3.516-8.43-78.37-78.269-156.809-156.502-234.94-235.009-21.299-21.367-33.11-47.48-33.212-78.029-0.17-51.166 34.168-93.696 80.93-105.574 9.831-2.492 20.276-3.687 30.413-3.72 202.036-0.171 404.003-0.171 606.004-0.103 42.29 0 74.683 18.261 96.733 54.408 21.914 35.977 18.876 86.05-7.031 119.262-4.506 5.769-9.353 11.333-14.54 16.487A198739.98 198739.98 0 0 1 650.205 498.38c-2.594 2.594-3.652 5.086-3.652 8.806 0.068 138.07-0.035 276.105 0.204 414.14 0.035 13.141-1.365 25.088-11.605 34.44-12.663-0.034-25.259-0.034-37.888-0.034z"></path>
  </symbol>
  <symbol id="add" viewBox="0 0 1024 1024">
    <path d="M0.022255 507.587499A511.975864 511.975864 0 1 1 504.976735 1023.951728 511.683306 511.683306 0 0 1 0.022255 507.587499zM512.583234 965.440201A453.464337 453.464337 0 1 0 58.533782 515.486556 453.756894 453.756894 0 0 0 512.583234 965.440201z"></path>
    <path d="M370.107665 542.986973h87.767291c17.846016 0 23.989726 3.510692 23.404611 22.526938v173.194121c0 27.20786 11.11719 41.835742 31.596224 42.420858s31.888782-14.920439 31.888783-41.835742v-172.901564c0-18.138573 3.510692-23.989726 22.526938-23.404611h173.194121c29.255764 0 42.1283-10.239517 41.835742-31.303667s-13.750209-31.596225-42.1283-31.596224h-170.268544c-21.649265 0-25.745072-6.728826-25.159957-26.330188V283.48835c0-29.255764-9.94696-41.543184-31.303667-42.1283s-32.18134 14.042767-32.18134 41.543185v175.534582c0 17.846016-5.266037 21.649265-21.941823 21.356707H288.776642c-31.011109 0-44.468761 9.361844-45.053876 31.011109s13.750209 31.888782 43.883645 31.888783z"></path>
  </symbol>
</svg>

