<svg version="1.1" xmlns="http://www.w3.org/2000/svg" style="display:none;">
  <symbol id="arrow-left" viewBox="0 0 1024 1024">
    <path d="M293.160948 1024a73.287677 73.287677 0 0 1-51.564683-124.85236L627.636544 512.01024 241.596265 124.87284a73.287677 73.287677 0 0 1 0-103.421932 72.702546 72.702546 0 0 1 103.129366 0l437.604962 438.848366a73.141394 73.141394 0 0 1 0 103.421932l-437.604962 438.848365a72.556263 72.556263 0 0 1-51.564683 21.430429z"/>
  </symbol>
  <symbol id="arrow-down" viewBox="0 0 1765 1024">
    <path d="M882.440095 682.698561L241.368376 41.416738A141.40052 141.40052 0 0 0 41.390643 241.394471l741.249679 741.207659a141.40052 141.40052 0 0 0 199.935713 0L1723.783693 241.394471a141.40052 141.40052 0 0 0-199.935713-199.977733z"></path>
  </symbol>
</svg>
